{
	"asset":{
		"generator":"Khronos glTF Blender I/O v4.2.69",
		"version":"2.0"
	},
	"scene":0,
	"scenes":[
		{
			"name":"Scene",
			"nodes":[
				0
			]
		}
	],
	"nodes":[
		{
			"mesh":0,
			"name":"PiCarFrame3_V2b"
		}
	],
	"meshes":[
		{
			"name":"PiCarFrame3_V2b",
			"primitives":[
				{
					"attributes":{
						"POSITION":0,
						"NORMAL":1
					},
					"indices":2
				}
			]
		}
	],
	"accessors":[
		{
			"bufferView":0,
			"componentType":5126,
			"count":15904,
			"max":[
				25,
				4,
				25
			],
			"min":[
				-25,
				0,
				-25
			],
			"type":"VEC3"
		},
		{
			"bufferView":1,
			"componentType":5126,
			"count":15904,
			"type":"VEC3"
		},
		{
			"bufferView":2,
			"componentType":5123,
			"count":95298,
			"type":"SCALAR"
		}
	],
	"bufferViews":[
		{
			"buffer":0,
			"byteLength":190848,
			"byteOffset":0,
			"target":34962
		},
		{
			"buffer":0,
			"byteLength":190848,
			"byteOffset":190848,
			"target":34962
		},
		{
			"buffer":0,
			"byteLength":190596,
			"byteOffset":381696,
			"target":34963
		}
	],
	"buffers":[
		{
			"byteLength":572292,
			"uri":"plaquette-dbb85ace3eaa981fe2c10dcc01bf826d.bin"
		}
	]
}
