{
	"asset":{
		"generator":"Khronos glTF Blender I/O v4.2.69",
		"version":"2.0"
	},
	"scene":0,
	"scenes":[
		{
			"name":"Scene",
			"nodes":[
				0,
				1,
				2,
				3,
				4,
				5,
				6
			]
		}
	],
	"nodes":[
		{
			"mesh":0,
			"name":"Cube",
			"rotation":[
				0,
				0.7071068286895752,
				0,
				0.7071068286895752
			],
			"scale":[
				0.04000000283122063,
				0.015000000596046448,
				0.11000000685453415
			],
			"translation":[
				0.03285714611411095,
				0.0325000025331974,
				-0.03285714611411095
			]
		},
		{
			"mesh":1,
			"name":"Cylinder",
			"rotation":[
				0,
				-0.7071068286895752,
				0.7071068286895752,
				1.1520233300643667e-07
			],
			"scale":[
				0.0325000025331974,
				0.012500000186264515,
				0.0325000025331974
			],
			"translation":[
				0.10285713523626328,
				0.0325000025331974,
				0.019742853939533234
			]
		},
		{
			"mesh":2,
			"name":"Cylinder.001",
			"rotation":[
				0,
				-0.7071068286895752,
				0.7071068286895752,
				1.1520233300643667e-07
			],
			"scale":[
				0.0325000025331974,
				0.012500000186264515,
				0.0325000025331974
			],
			"translation":[
				-0.03714285045862198,
				0.0325000025331974,
				0.019742853939533234
			]
		},
		{
			"mesh":3,
			"name":"Cylinder.002",
			"rotation":[
				0,
				-0.7071068286895752,
				0.7071068286895752,
				1.1520233300643667e-07
			],
			"scale":[
				0.0325000025331974,
				0.012500000186264515,
				0.0325000025331974
			],
			"translation":[
				0.10285714268684387,
				0.0325000025331974,
				-0.08545715361833572
			]
		},
		{
			"mesh":4,
			"name":"Cylinder.004",
			"rotation":[
				0,
				-0.7071068286895752,
				0.7071068286895752,
				1.1520233300643667e-07
			],
			"scale":[
				0.0325000025331974,
				0.012500000186264515,
				0.0325000025331974
			],
			"translation":[
				-0.037142857909202576,
				0.0325000025331974,
				-0.08545714616775513
			]
		},
		{
			"mesh":5,
			"name":"Cube.001",
			"rotation":[
				0,
				0.7071068286895752,
				0,
				0.7071068286895752
			],
			"scale":[
				0.0625,
				0.002500000176951289,
				0.020000001415610313
			],
			"translation":[
				-0.09714286029338837,
				0.020000003278255463,
				-0.03285714238882065
			]
		},
		{
			"mesh":6,
			"name":"Cube.002",
			"rotation":[
				0,
				0.7071068286895752,
				0,
				0.7071068286895752
			],
			"scale":[
				0.02500000037252903,
				0.012500000186264515,
				0.010000000707805157
			],
			"translation":[
				-0.06714285910129547,
				0.06000000238418579,
				-0.03285714238882065
			]
		}
	],
	"materials":[
		{
			"doubleSided":true,
			"name":"Material",
			"pbrMetallicRoughness":{
				"baseColorFactor":[
					0.800000011920929,
					0.800000011920929,
					0.800000011920929,
					1
				],
				"metallicFactor":0,
				"roughnessFactor":0.5
			}
		},
		{
			"doubleSided":true,
			"name":"Material.001",
			"pbrMetallicRoughness":{
				"metallicFactor":0,
				"roughnessFactor":0.5
			}
		}
	],
	"meshes":[
		{
			"name":"Cube",
			"primitives":[
				{
					"attributes":{
						"POSITION":0,
						"NORMAL":1,
						"TEXCOORD_0":2,
						"TANGENT":3
					},
					"indices":4,
					"material":0
				}
			]
		},
		{
			"name":"Cylinder",
			"primitives":[
				{
					"attributes":{
						"POSITION":5,
						"NORMAL":6,
						"TEXCOORD_0":7
					},
					"indices":8,
					"material":1
				}
			]
		},
		{
			"name":"Cylinder.001",
			"primitives":[
				{
					"attributes":{
						"POSITION":9,
						"NORMAL":10,
						"TEXCOORD_0":11
					},
					"indices":8
				}
			]
		},
		{
			"name":"Cylinder.002",
			"primitives":[
				{
					"attributes":{
						"POSITION":12,
						"NORMAL":13,
						"TEXCOORD_0":14
					},
					"indices":8
				}
			]
		},
		{
			"name":"Cylinder.004",
			"primitives":[
				{
					"attributes":{
						"POSITION":15,
						"NORMAL":16,
						"TEXCOORD_0":17
					},
					"indices":8
				}
			]
		},
		{
			"name":"Cube.001",
			"primitives":[
				{
					"attributes":{
						"POSITION":18,
						"NORMAL":19,
						"TEXCOORD_0":20,
						"TANGENT":21
					},
					"indices":22
				}
			]
		},
		{
			"name":"Cube.002",
			"primitives":[
				{
					"attributes":{
						"POSITION":23,
						"NORMAL":24,
						"TEXCOORD_0":25,
						"TANGENT":26
					},
					"indices":22
				}
			]
		}
	],
	"accessors":[
		{
			"bufferView":0,
			"componentType":5126,
			"count":24,
			"max":[
				1,
				1,
				1
			],
			"min":[
				-1,
				-1,
				-1
			],
			"type":"VEC3"
		},
		{
			"bufferView":1,
			"componentType":5126,
			"count":24,
			"type":"VEC3"
		},
		{
			"bufferView":2,
			"componentType":5126,
			"count":24,
			"type":"VEC2"
		},
		{
			"bufferView":3,
			"componentType":5126,
			"count":24,
			"type":"VEC4"
		},
		{
			"bufferView":4,
			"componentType":5123,
			"count":36,
			"type":"SCALAR"
		},
		{
			"bufferView":5,
			"componentType":5126,
			"count":192,
			"max":[
				1,
				1,
				1
			],
			"min":[
				-1,
				-1,
				-1
			],
			"type":"VEC3"
		},
		{
			"bufferView":6,
			"componentType":5126,
			"count":192,
			"type":"VEC3"
		},
		{
			"bufferView":7,
			"componentType":5126,
			"count":192,
			"type":"VEC2"
		},
		{
			"bufferView":8,
			"componentType":5123,
			"count":372,
			"type":"SCALAR"
		},
		{
			"bufferView":9,
			"componentType":5126,
			"count":192,
			"max":[
				1,
				1,
				1
			],
			"min":[
				-1,
				-1,
				-1
			],
			"type":"VEC3"
		},
		{
			"bufferView":10,
			"componentType":5126,
			"count":192,
			"type":"VEC3"
		},
		{
			"bufferView":11,
			"componentType":5126,
			"count":192,
			"type":"VEC2"
		},
		{
			"bufferView":12,
			"componentType":5126,
			"count":192,
			"max":[
				1,
				1,
				1
			],
			"min":[
				-1,
				-1,
				-1
			],
			"type":"VEC3"
		},
		{
			"bufferView":13,
			"componentType":5126,
			"count":192,
			"type":"VEC3"
		},
		{
			"bufferView":14,
			"componentType":5126,
			"count":192,
			"type":"VEC2"
		},
		{
			"bufferView":15,
			"componentType":5126,
			"count":192,
			"max":[
				1,
				1,
				1
			],
			"min":[
				-1,
				-1,
				-1
			],
			"type":"VEC3"
		},
		{
			"bufferView":16,
			"componentType":5126,
			"count":192,
			"type":"VEC3"
		},
		{
			"bufferView":17,
			"componentType":5126,
			"count":192,
			"type":"VEC2"
		},
		{
			"bufferView":18,
			"componentType":5126,
			"count":24,
			"max":[
				1,
				1,
				1
			],
			"min":[
				-1,
				-1,
				-1
			],
			"type":"VEC3"
		},
		{
			"bufferView":19,
			"componentType":5126,
			"count":24,
			"type":"VEC3"
		},
		{
			"bufferView":20,
			"componentType":5126,
			"count":24,
			"type":"VEC2"
		},
		{
			"bufferView":21,
			"componentType":5126,
			"count":24,
			"type":"VEC4"
		},
		{
			"bufferView":22,
			"componentType":5123,
			"count":36,
			"type":"SCALAR"
		},
		{
			"bufferView":23,
			"componentType":5126,
			"count":24,
			"max":[
				1,
				1,
				1
			],
			"min":[
				-1,
				-1,
				-1
			],
			"type":"VEC3"
		},
		{
			"bufferView":24,
			"componentType":5126,
			"count":24,
			"type":"VEC3"
		},
		{
			"bufferView":25,
			"componentType":5126,
			"count":24,
			"type":"VEC2"
		},
		{
			"bufferView":26,
			"componentType":5126,
			"count":24,
			"type":"VEC4"
		}
	],
	"bufferViews":[
		{
			"buffer":0,
			"byteLength":288,
			"byteOffset":0,
			"target":34962
		},
		{
			"buffer":0,
			"byteLength":288,
			"byteOffset":288,
			"target":34962
		},
		{
			"buffer":0,
			"byteLength":192,
			"byteOffset":576,
			"target":34962
		},
		{
			"buffer":0,
			"byteLength":384,
			"byteOffset":768,
			"target":34962
		},
		{
			"buffer":0,
			"byteLength":72,
			"byteOffset":1152,
			"target":34963
		},
		{
			"buffer":0,
			"byteLength":2304,
			"byteOffset":1224,
			"target":34962
		},
		{
			"buffer":0,
			"byteLength":2304,
			"byteOffset":3528,
			"target":34962
		},
		{
			"buffer":0,
			"byteLength":1536,
			"byteOffset":5832,
			"target":34962
		},
		{
			"buffer":0,
			"byteLength":744,
			"byteOffset":7368,
			"target":34963
		},
		{
			"buffer":0,
			"byteLength":2304,
			"byteOffset":8112,
			"target":34962
		},
		{
			"buffer":0,
			"byteLength":2304,
			"byteOffset":10416,
			"target":34962
		},
		{
			"buffer":0,
			"byteLength":1536,
			"byteOffset":12720,
			"target":34962
		},
		{
			"buffer":0,
			"byteLength":2304,
			"byteOffset":14256,
			"target":34962
		},
		{
			"buffer":0,
			"byteLength":2304,
			"byteOffset":16560,
			"target":34962
		},
		{
			"buffer":0,
			"byteLength":1536,
			"byteOffset":18864,
			"target":34962
		},
		{
			"buffer":0,
			"byteLength":2304,
			"byteOffset":20400,
			"target":34962
		},
		{
			"buffer":0,
			"byteLength":2304,
			"byteOffset":22704,
			"target":34962
		},
		{
			"buffer":0,
			"byteLength":1536,
			"byteOffset":25008,
			"target":34962
		},
		{
			"buffer":0,
			"byteLength":288,
			"byteOffset":26544,
			"target":34962
		},
		{
			"buffer":0,
			"byteLength":288,
			"byteOffset":26832,
			"target":34962
		},
		{
			"buffer":0,
			"byteLength":192,
			"byteOffset":27120,
			"target":34962
		},
		{
			"buffer":0,
			"byteLength":384,
			"byteOffset":27312,
			"target":34962
		},
		{
			"buffer":0,
			"byteLength":72,
			"byteOffset":27696,
			"target":34963
		},
		{
			"buffer":0,
			"byteLength":288,
			"byteOffset":27768,
			"target":34962
		},
		{
			"buffer":0,
			"byteLength":288,
			"byteOffset":28056,
			"target":34962
		},
		{
			"buffer":0,
			"byteLength":192,
			"byteOffset":28344,
			"target":34962
		},
		{
			"buffer":0,
			"byteLength":384,
			"byteOffset":28536,
			"target":34962
		}
	],
	"buffers":[
		{
			"byteLength":28920,
			"uri":"voiture-a261728b3ef31fa168e280e2b28f4589.bin"
		}
	]
}
